# AST/ASF file generated using VICON BodyLanguage
# -----------------------------------------------
:version 1.10
:name VICON
:units
  mass 1.0
  length 0.45
  angle deg
:documentation
   .ast/.asf automatically generated from VICON data using
   VICON BodyBuilder and BodyLanguage model FoxedUp or BRILLIANT.MOD
:root
   order TX TY TZ RX RY RZ
   axis XYZ
   position 0 0 0  
   orientation 0 0 0 
:bonedata
  begin
     id 1 
     name lhipjoint
     direction 0.610259 -0.730986 0.305356 
     length 2.50941 
     axis 0 0 0  XYZ
  end
  begin
     id 2 
     name lfemur
     direction 0.34202 -0.939693 0  
     length 7.48822  
     axis 0 0 20  XYZ
    dof rx ry rz
    limits (-160.0 20.0)
           (-70.0 70.0)
           (-60.0 70.0)
  end
  begin
     id 3 
     name ltibia
     direction 0.34202 -0.939693 0   
     length 7.60141   
     axis 0 0 20   XYZ
    dof rx
    limits (-10.0 170.0)
  end
  begin
     id 4 
     name lfoot
     direction 0.0673488 -0.185039 0.980421   
     length 2.04049   
     axis -90 7.62852e-016 20   XYZ
    dof rx rz
    limits (-45.0 90.0)
           (-70.0 20.0)
  end
  begin
     id 5 
     name ltoes
     direction 1.5356e-011 -4.21729e-011 1   
     length 1.02897   
     axis -90 7.62852e-016 20   XYZ
    dof rx
    limits (-90.0 20.0)
  end
  begin
     id 6 
     name rhipjoint
     direction -0.57612 -0.754205 0.315056   
     length 2.43216  
     axis 0 0 0  XYZ 
  end
  begin
     id 7 
     name rfemur
     direction -0.34202 -0.939693 0   
     length 7.42799   
     axis 0 0 -20   XYZ
    dof rx ry rz
    limits (-160.0 20.0)
           (-70.0 70.0)
           (-70.0 60.0)
  end
  begin
     id 8 
     name rtibia
     direction -0.34202 -0.939693 0   
     length 7.69484   
     axis 0 0 -20   XYZ
    dof rx
    limits (-10.0 170.0)
 end
 begin
     id 9 
     name rfoot
     direction -0.111837 -0.30727 0.945028   
     length 2.15769  
     axis -90 -7.62852e-016 -20   XYZ
    dof rx rz
    limits (-45.0 90.0)
           (-20.0 70.0)
  end
  begin
     id 10 
     name rtoes
     direction -1.53539e-011 -4.21878e-011 1   
     length 1.07391   
     axis -90 -7.62852e-016 -20   XYZ
    dof rx
    limits (-90.0 20.0)
  end
  begin
     id 11 
     name lowerback
     direction 0.00552624 0.990109 -0.140195   
     length 2.12403   
     axis 0 0 0   XYZ
    dof rx ry rz
    limits (-20.0 45.0)
           (-30.0 30.0)
           (-30.0 30.0)
  end
  begin
     id 12 
     name upperback
     direction 0.00361898 0.999976 -0.00584723   
     length 2.13232   
     axis 0 0 0   XYZ
    dof rx ry rz
    limits (-20.0 45.0)
           (-30.0 30.0)
           (-30.0 30.0)
  end
  begin
     id 13 
     name thorax
     direction -0.000331275 0.998253 0.0590847   
     length 2.17688   
     axis 0 0 0   XYZ
    dof rx ry rz
    limits (-20.0 45.0)
           (-30.0 30.0)
           (-30.0 30.0)
  end
  begin
     id 14 
     name lowerneck
     direction -0.0561561 0.979832 0.19177   
     length 1.64159   
     axis 0 0 0   XYZ
    dof rx ry rz
    limits (-20.0 45.0)
           (-30.0 30.0)
           (-30.0 30.0)
  end
  begin
     id 15 
     name upperneck
     direction 0.0827153 0.979385 -0.184293   
     length 1.68939   
     axis 0 0 0   XYZ
    dof rx ry rz
    limits (-20.0 45.0)
           (-30.0 30.0)
           (-30.0 30.0)
  end
  begin
     id 16
     name head
     direction 0.0278583 0.995936 -0.0856488  
     length 1.70207  
     axis 0 0 0   XYZ
    dof rx ry rz
    limits (-20.0 45.0)
           (-30.0 30.0)
           (-30.0 30.0)
  end
  begin
     id 17 
     name lclavicle
     direction 0.950993 0.301131 -0.0702275  
     length 3.41652  
     axis 0 0 0   XYZ
    dof ry rz
    limits (-20.0 10.0)
           (0.0 20.0)
  end
  begin
     id 18 
     name lhumerus
     direction 1 -4.48981e-011 -3.9662e-029   
     length 5.32955   
     axis 180 -30 -90   XYZ
    dof rx ry rz
    limits (-60.0 90.0)
           (-90.0 90.0)
           (-90.0 90.0)
  end
  begin
     id 19
     name lradius
     direction 1 -4.48925e-011 -9.0549e-027   
     length 3.69232   
     axis 180 -30 -90   XYZ
    dof rx
    limits (-10.0 170.0)
  end
  begin
     id 20
     name lwrist
     direction 1 -4.49007e-011 -1.49005e-026   
     length 1.84616   
     axis 9.0955e-015 90 90   XYZ
    dof ry
    limits (-180.0 0.0)
 end
  begin
     id 21 
     name lhand
     direction 1 -4.49016e-011 -2.98023e-026   
     length 0.536598   
     axis 1.90115e-014 90 90   XYZ
    dof rx rz
    limits (-90.0 90.0)
           (-45.0 45.0)
  end
  begin
     id 22 
     name lfingers
     direction 1 -4.48924e-011 -5.9578e-026   
     length 0.432619   
     axis 3.80223e-014 90 90   XYZ
    dof rx
    limits (0.0 90.0)
  end
  begin
     id 23
     name lthumb
     direction 0.707107 -6.34947e-011 0.707107   
     length 0.621157   
     axis -90 45 -3.84942e-014   XYZ
    dof rx rz
    limits (-45.0 45.0)
           (-45.0 45.0)
  end
  begin
     id 24 
     name rclavicle
     direction -0.955495 0.276497 -0.102848   
     length 3.36357  
     axis 0 0 0   XYZ 
    dof ry rz
    limits (-10.0 20.0)
           (-20.0 0.0)
  end
  begin
     id 25 
     name rhumerus
     direction -1 -4.48961e-011 3.30983e-027  
     length 5.23431   
     axis 180 30 90   XYZ
    dof rx ry rz
    limits (-90.0 60.0)
           (-90.0 90.0)
           (-90.0 90.0)
  end
  begin
     id 26 
     name rradius
     direction -1 -4.48965e-011 -6.63263e-027   
     length 3.55301   
     axis 180 30 90   XYZ
    dof rx
    limits (-10.0 170.0)
  end
  begin
     id 27 
     name rwrist
     direction -1 -4.48942e-011 -1.48958e-026   
     length 1.77651   
     axis 9.0955e-015 -90 -90   XYZ
    dof ry
    limits (-180.0 0.0)
  end
  begin
     id 28
     name rhand
     direction -1 -4.48977e-011 -2.97966e-026   
     length 0.772522   
     axis 1.90115e-014 -90 -90   XYZ
    dof rx rz
    limits (-90.0 90.0)
           (-45.0 45.0)
  end
  begin
     id 29
     name rfingers
     direction -1 -4.49135e-011 -5.96389e-026   
     length 0.622827   
     axis 3.80223e-014 -90 -90   XYZ
    dof rx
    limits (0.0 90.0)
  end
  begin
     id 30
     name rthumb
     direction -0.707107 -6.34969e-011 0.707107   
     length 0.894259   
     axis -90 -45 3.84942e-014   XYZ
    dof rx rz
    limits (-45.0 45.0)
           (-45.0 45.0)
  end
:hierarchy
  begin
    root lhipjoint rhipjoint lowerback
    lhipjoint lfemur
    lfemur ltibia
    ltibia lfoot
    lfoot ltoes
    rhipjoint rfemur
    rfemur rtibia
    rtibia rfoot
    rfoot rtoes
    lowerback upperback
    upperback thorax
    thorax lowerneck lclavicle rclavicle
    lowerneck upperneck
    upperneck head
    lclavicle lhumerus
    lhumerus lradius
    lradius lwrist
    lwrist lhand lthumb
    lhand lfingers
    rclavicle rhumerus
    rhumerus rradius
    rradius rwrist
    rwrist rhand rthumb
    rhand rfingers
  end

#!OML:ASF F:\VICON\USERDATA\INSTALL\rory3\rory3.ASF
:FULLY-SPECIFIED
:DEGREES
48
root -11.1354 17.5909 -6.49129 -1.72265 -1.87374 7.37146
lowerback 9.61381 -0.700287 -7.97247
upperback 1.69439 -1.77428 -0.79085
thorax -3.40437 -0.799717 3.87442
lowerneck -15.4479 -3.21437 -11.5903
upperneck 38.0746 -3.42858 5.96958
head 16.6888 -2.31535 4.08766
rclavicle -1.35671e-014 -6.75868e-015
rhumerus -39.3661 -16.9119 -77.462
rradius 27.8191
rwrist 7.96825
rhand -14.4733 7.50768
rfingers 7.12502
rthumb 11.6727 -22.1472
lclavicle -1.35671e-014 -6.75868e-015
lhumerus -21.5623 -2.18823 83.7964
lradius 36.396
lwrist -4.13554
lhand -19.9898 25.8582
lfingers 7.12502
lthumb 6.34963 55.7431
rfemur -28.2473 0.416605 11.0741
rtibia 22.6685
rfoot -7.61425 -8.8422
rtoes -0.7271
lfemur 13.673 0.880918 -31.4246
ltibia 3.39986
lfoot -8.78799 -4.31865
ltoes -7.55374
49
root -11.1525 17.5709 -6.35599 -1.66838 -1.91402 7.39239
lowerback 9.43615 -0.703706 -8.01255
upperback 1.77184 -1.76135 -0.787004
thorax -3.22432 -0.802348 3.89332
lowerneck -15.498 -3.23593 -11.5625
upperneck 38.0093 -3.44257 5.92011
head 16.6668 -2.32092 4.05454
rclavicle -4.96962e-015 -2.42517e-014
rhumerus -39.3566 -17.2679 -77.2687
rradius 27.6241
rwrist 8.27136
rhand -14.2105 7.63005
rfingers 7.12502
rthumb 11.9261 -22.0102
lclavicle -4.96962e-015 -2.42517e-014
lhumerus -21.2438 -2.58306 83.8217
lradius 36.7255
lwrist -3.85112
lhand -19.9166 26.1937
lfingers 7.12502
lthumb 6.42038 56.0764
rfemur -28.3708 0.533716 11.0519
rtibia 22.2137
rfoot -8.33121 -8.18378
rtoes -4.51882
lfemur 15.3283 0.622553 -31.5096
ltibia 0.88183
lfoot -7.41158 -4.4503
ltoes -6.04873
50
root -11.17 17.5593 -6.22283 -1.63888 -1.93592 7.41763
lowerback 9.42962 -0.716489 -8.05766
upperback 1.77655 -1.7817 -0.78183
thorax -3.21156 -0.812645 3.92603
lowerneck -15.5556 -3.26658 -11.5309
upperneck 38.0015 -3.45148 5.81548
head 16.6759 -2.33361 3.99902
rclavicle 2.96686e-014 6.36111e-015
rhumerus -39.3756 -17.8772 -76.8511
rradius 27.1447
rwrist 9.02154
rhand -13.6523 8.03664
rfingers 7.12502
rthumb 12.4644 -21.5717
lclavicle 2.96686e-014 6.36111e-015
lhumerus -21.0148 -2.82891 83.8298
lradius 36.9778
lwrist -3.70044
lhand -19.6921 26.4585
lfingers 7.12502
lthumb 6.63709 56.3345
rfemur -28.3819 0.588754 11.0515
rtibia 21.8955
rfoot -8.65116 -7.43231
rtoes -6.85142
lfemur 16.2543 0.340051 -31.5467
ltibia 5.725e-014
lfoot -7.00659 -4.43555
ltoes -4.5189
51
root -11.1867 17.5492 -6.09058 -1.65222 -1.89766 7.38119
lowerback 9.58572 -0.768665 -7.976
upperback 1.66535 -1.86322 -0.76694
thorax -3.40723 -0.842751 3.91139
lowerneck -15.5441 -3.2731 -11.6033
upperneck 38.1199 -3.42875 5.77782
head 16.7358 -2.34502 4.00396
rclavicle 2.88238e-015 -2.06736e-014
rhumerus -39.6465 -18.4307 -76.281
rradius 26.5368
rwrist 10.0552
rhand -13.3288 8.74059
rfingers 7.12502
rthumb 12.7762 -20.8485
lclavicle 2.88238e-015 -2.06736e-014
lhumerus -21.0845 -3.07781 83.8482
lradius 37.3244
lwrist -3.4821
lhand -19.5467 26.5589
lfingers 7.12502
lthumb 6.77744 56.4304
rfemur -28.3043 0.287477 11.2639
rtibia 21.788
rfoot -8.39258 -6.52697
rtoes -8.4817
lfemur 16.8052 0.00429429 -31.5203
ltibia 1.90833e-014
lfoot -7.15354 -4.28632
ltoes -6.02149
52
root -11.2033 17.5348 -5.95819 -1.66175 -1.89181 7.3858
lowerback 9.71361 -0.827996 -7.94672
upperback 1.5813 -1.95539 -0.758971
thorax -3.55601 -0.880314 3.91925
lowerneck -15.5462 -3.2174 -11.6231
upperneck 38.2341 -3.33315 5.7568
head 16.7852 -2.31616 4.02055
rclavicle 6.65929e-015 -2.22639e-014
rhumerus -39.9146 -18.3947 -76.1025
rradius 26.3639
rwrist 10.313
rhand -13.4154 8.91283
rfingers 7.12502
rthumb 12.6927 -20.6814
lclavicle 6.65929e-015 -2.22639e-014
lhumerus -21.0932 -3.14058 83.8489
lradius 37.6101
lwrist -3.48463
lhand -19.5329 26.7871
lfingers 7.12502
lthumb 6.79073 56.6582
rfemur -28.3311 -0.262596 11.539
rtibia 21.9065
rfoot -7.41755 -5.37709
rtoes -8.51247
lfemur 17.3637 -0.294862 -31.5575
ltibia 2.8625e-014
lfoot -7.26829 -4.10346
ltoes -9.38841
53
root -11.2213 17.5258 -5.8251 -1.67396 -1.9458 7.40305
lowerback 9.78008 -0.852495 -7.98133
upperback 1.56602 -1.99749 -0.729396
thorax -3.60152 -0.898342 3.97693
lowerneck -15.5831 -3.15851 -11.6747
upperneck 38.2676 -3.23032 5.77881
head 16.8007 -2.27953 4.06052
rclavicle 8.49804e-015 7.95139e-016
rhumerus -40.0559 -18.4278 -75.9853
rradius 26.3687
rwrist 10.4573
rhand -13.2268 8.60068
rfingers 7.12502
rthumb 12.8746 -20.9822
lclavicle 8.49804e-015 7.95139e-016
lhumerus -20.9567 -3.05393 83.8866
lradius 37.7158
lwrist -3.4937
lhand -19.8149 26.6027
lfingers 7.12502
lthumb 6.51848 56.4824
rfemur -28.3137 -0.541816 11.7491
rtibia 22.2952
rfoot -6.36456 -4.31938
rtoes -6.88059
lfemur 17.8887 -0.538146 -31.5895
ltibia -2.22639e-014
lfoot -7.30399 -4.04063
ltoes -11.0332
54
root -11.2438 17.5159 -5.68893 -1.74809 -2.12245 7.27813
lowerback 9.90045 -0.813831 -7.97483
upperback 1.53837 -1.95375 -0.612928
thorax -3.6991 -0.871517 4.09461
lowerneck -15.6739 -3.14066 -11.6984
upperneck 38.4287 -3.15269 5.69209
head 16.9004 -2.26814 4.04691
rclavicle -8.84592e-015 1.63003e-014
rhumerus -40.156 -18.6789 -75.6327
rradius 26.145
rwrist 10.9053
rhand -13.0686 8.3728
rfingers 7.12502
rthumb 13.0271 -21.2004
lclavicle -8.84592e-015 1.63003e-014
lhumerus -20.9678 -2.95433 83.9999
lradius 37.8442
lwrist -3.5271
lhand -20.1281 26.1558
lfingers 7.12502
lthumb 6.21618 56.0446
rfemur -28.2775 -0.655199 12.17
rtibia 22.8833
rfoot -5.22186 -3.41281
rtoes -6.7895
lfemur 18.4461 -0.662254 -31.4314
ltibia -2.8625e-014
lfoot -7.24282 -4.01853
ltoes -11.3816
55
root -11.2669 17.5079 -5.54576 -1.81131 -2.33379 7.27607
lowerback 9.89548 -0.73105 -8.0287
upperback 1.5253 -1.84971 -0.604549
thorax -3.72139 -0.818079 4.12122
lowerneck -15.7189 -3.15616 -11.5006
upperneck 38.53 -3.17164 5.51453
head 16.9599 -2.27425 3.93082
rclavicle -9.29318e-015 -1.11319e-014
rhumerus -40.2504 -19.1497 -75.293
rradius 25.7988
rwrist 11.3331
rhand -12.9983 8.28035
rfingers 7.12502
rthumb 13.0948 -21.2885
lclavicle -9.29318e-015 -1.11319e-014
lhumerus -21.0021 -2.98381 84.0359
lradius 38.028
lwrist -3.69031
lhand -20.2332 25.9731
lfingers 7.12502
lthumb 6.11472 55.8648
rfemur -28.2362 -0.82422 12.4803
rtibia 23.6012
rfoot -4.09431 -2.74815
rtoes -6.11322
lfemur 19.0193 -0.748741 -31.4112
ltibia -3.49861e-014
lfoot -7.0313 -4.02105
ltoes -11.6661
56
root -11.2889 17.5017 -5.39561 -1.92355 -2.36153 7.36654
lowerback 9.82667 -0.721889 -8.11986
upperback 1.60178 -1.83828 -0.646682
thorax -3.60249 -0.818621 4.12341
lowerneck -15.7418 -3.1553 -11.3515
upperneck 38.5136 -3.17006 5.3924
head 16.9494 -2.26744 3.84746
rclavicle -1.98785e-015 -3.02153e-014
rhumerus -40.2799 -19.4363 -75.1535
rradius 25.5666
rwrist 11.467
rhand -12.965 8.20825
rfingers 7.12502
rthumb 13.127 -21.3586
lclavicle -1.98785e-015 -3.02153e-014
lhumerus -20.9295 -2.95523 84.019
lradius 38.1599
lwrist -3.87565
lhand -20.0256 26.0059
lfingers 7.12502
lthumb 6.31513 55.8918
rfemur -28.0598 -1.04603 12.6099
rtibia 24.3125
rfoot -2.92775 -2.37375
rtoes -4.80791
lfemur 19.674 -0.993694 -31.5329
ltibia 6.67916e-014
lfoot -6.81736 -3.98451
ltoes -12.4699
57
root -11.3116 17.5031 -5.24635 -2.02959 -2.30731 7.34372
lowerback 9.8136 -0.774542 -8.1276
upperback 1.663 -1.90272 -0.607426
thorax -3.52071 -0.855458 4.17517
lowerneck -15.7036 -3.12728 -11.412
upperneck 38.4583 -3.10844 5.38775
head 16.9038 -2.25036 3.86504
rclavicle -7.8023e-015 -2.3059e-014
rhumerus -40.3419 -19.6078 -74.9649
rradius 25.4179
rwrist 11.6557
rhand -13.0001 8.23814
rfingers 7.12502
rthumb 13.0931 -21.3309
lclavicle -7.8023e-015 -2.3059e-014
lhumerus -20.9659 -2.77156 84.0486
lradius 38.3671
lwrist -3.85578
lhand -19.9321 26.2163
lfingers 7.12502
lthumb 6.40536 56.0995
rfemur -27.7913 -0.833227 12.6999
rtibia 24.944
rfoot -1.42537 -2.34946
rtoes -2.58125
lfemur 20.3271 -1.32253 -31.5464
ltibia 2.22639e-014
lfoot -6.58215 -3.91174
ltoes -13.8268
58
root -11.3375 17.5137 -5.1009 -2.06428 -2.27967 7.20357
lowerback 9.87917 -0.822577 -8.05537
upperback 1.61086 -1.96432 -0.520635
thorax -3.60335 -0.881508 4.23608
lowerneck -15.6805 -3.07402 -11.4163
upperneck 38.5059 -3.01839 5.35698
head 16.9117 -2.22052 3.87035
rclavicle -2.89729e-014 -2.94201e-014
rhumerus -40.5814 -19.7499 -74.7024
rradius 25.3661
rwrist 11.8555
rhand -12.9805 8.19602
rfingers 7.12502
rthumb 13.112 -21.3718
lclavicle -2.89729e-014 -2.94201e-014
lhumerus -21.1524 -2.60645 84.1306
lradius 38.5063
lwrist -3.73569
lhand -20.045 26.5513
lfingers 7.12502
lthumb 6.29632 56.4377
rfemur -27.6133 -0.500858 12.9008
rtibia 25.4727
rfoot 0.585217 -2.0699
rtoes 1.91806
lfemur 20.8682 -1.65004 -31.4121
ltibia -3.18055e-015
lfoot -6.12986 -3.8285
ltoes -14.6293
59
root -11.3671 17.5289 -4.95392 -2.09164 -2.27581 6.88456
lowerback 10.0415 -0.877235 -7.85127
upperback 1.47561 -2.0308 -0.369925
thorax -3.82904 -0.903068 4.29569
lowerneck -15.6726 -2.98723 -11.2641
upperneck 38.6803 -2.86389 5.15516
head 16.9768 -2.16912 3.78635
rclavicle -2.34069e-014 -6.75868e-015
rhumerus -40.8603 -19.7693 -74.454
rradius 25.2529
rwrist 11.9823
rhand -13.0541 7.97372
rfingers 7.12502
rthumb 13.0411 -21.5986
lclavicle -2.34069e-014 -6.75868e-015
lhumerus -21.5597 -2.33763 84.2082
lradius 38.6483
lwrist -3.75584
lhand -19.9188 26.7244
lfingers 7.12502
lthumb 6.41818 56.6072
rfemur -27.4775 -0.202281 13.323
rtibia 25.9272
rfoot 2.46713 -1.34343
rtoes 6.81412
lfemur 21.3989 -1.97164 -31.0575
ltibia -1.27222e-014
lfoot -5.52996 -3.8005
ltoes -15.3661
60
root -11.3952 17.5448 -4.80431 -2.12728 -2.22982 6.57641
lowerback 10.0538 -0.920357 -7.62856
upperback 1.4416 -2.06088 -0.238331
thorax -3.87068 -0.917697 4.3137
lowerneck -15.5663 -2.96946 -11.1839
upperneck 38.7094 -2.81503 4.99272
head 16.9551 -2.16153 3.70715
rclavicle 9.29318e-015 -2.38542e-015
rhumerus -40.9827 -19.9758 -74.1866
rradius 25.0542
rwrist 12.1324
rhand -13.1202 7.93065
rfingers 7.12502
rthumb 12.9773 -21.6457
lclavicle 9.29318e-015 -2.38542e-015
lhumerus -21.8783 -2.00496 84.3034
lradius 38.747
lwrist -3.84898
lhand -19.9615 26.6317
lfingers 7.12502
lthumb 6.37702 56.5157
rfemur -27.3269 0.00547928 13.7096
rtibia 26.2932
rfoot 3.46148 -0.838992
rtoes 9.48493
lfemur 22.0005 -2.33267 -30.7213
ltibia 2.54444e-014
lfoot -4.82465 -3.79124
ltoes -15.4041
61
root -11.4201 17.5713 -4.65258 -2.10861 -2.2892 6.31344
lowerback 9.8817 -0.915611 -7.4004
upperback 1.49754 -2.00861 -0.14942
thorax -3.72738 -0.901848 4.26573
lowerneck -15.5615 -2.99489 -11.1226
upperneck 38.6821 -2.84551 4.91809
head 16.9401 -2.17403 3.65512
rclavicle 4.87022e-015 7.95139e-016
rhumerus -40.9747 -20.5185 -73.8774
rradius 24.7916
rwrist 12.4766
rhand -13.2213 8.12556
rfingers 7.12502
rthumb 12.8798 -21.457
lclavicle 4.87022e-015 7.95139e-016
lhumerus -21.9816 -1.67279 84.397
lradius 38.6963
lwrist -3.88624
lhand -20.2445 26.5347
lfingers 7.12502
lthumb 6.1038 56.4267
rfemur -27.1672 0.124086 14.0756
rtibia 26.6137
rfoot 3.42085 -1.18779
rtoes 9.54412
lfemur 22.529 -2.5977 -30.4319
ltibia -2.54444e-014
lfoot -3.90095 -3.84391
ltoes -14.0109
62
root -11.4433 17.6044 -4.502 -2.04973 -2.48142 5.93111
lowerback 9.84633 -0.914586 -7.0477
upperback 1.49547 -1.961 -0.00535208
thorax -3.72275 -0.882359 4.2118
lowerneck -15.897 -3.00262 -11.0751
upperneck 38.8696 -2.81082 4.86052
head 17.1222 -2.16519 3.63484
rclavicle -8.94531e-016 7.55382e-015
rhumerus -40.9165 -20.9097 -73.6117
rradius 24.5667
rwrist 12.725
rhand -13.2878 8.39818
rfingers 7.12502
rthumb 12.8158 -21.1884
lclavicle -8.94531e-016 7.55382e-015
lhumerus -22.1128 -1.2436 84.4768
lradius 38.5443
lwrist -3.85174
lhand -20.491 26.1048
lfingers 7.12502
lthumb 5.86575 56.0037
rfemur -26.9278 0.26779 14.6521
rtibia 26.9289
rfoot 3.05643 -2.14165
rtoes 6.88585
lfemur 22.9107 -2.73545 -30.0423
ltibia 0
lfoot -2.80675 -3.86851
ltoes -15.3921
